<?xml version="1.0" encoding="UTF-8" standalone="no"?><!-- Generator: Gravit.io --><svg xmlns="http://www.w3.org/2000/svg" xmlns:xlink="http://www.w3.org/1999/xlink" style="isolation:isolate" viewBox="696.488 446.224 1020.176 164.096" width="1020.176pt" height="164.096pt"><defs><clipPath id="_clipPath_F1vczEbDeJpHDd624uZLRrYShQCfiwNT"><rect x="696.488" y="446.224" width="1020.176" height="164.096"/></clipPath></defs><g clip-path="url(#_clipPath_F1vczEbDeJpHDd624uZLRrYShQCfiwNT)"><path d=" M 804.008 448.784 L 801.448 487.44 L 771.752 487.44 L 771.752 607.76 L 727.976 607.76 L 727.976 487.44 L 696.488 487.44 L 699.048 448.784 L 804.008 448.784 L 804.008 448.784 Z  M 823.592 465.424 L 823.592 465.424 L 823.592 465.424 Q 838.312 446.224 871.848 446.224 L 871.848 446.224 L 871.848 446.224 Q 905.384 446.224 919.848 465.168 L 919.848 465.168 L 919.848 465.168 Q 934.312 484.112 934.312 526.736 L 934.312 526.736 L 934.312 526.736 Q 934.312 569.36 919.464 589.84 L 919.464 589.84 L 919.464 589.84 Q 904.616 610.32 871.336 610.32 L 871.336 610.32 L 871.336 610.32 Q 838.056 610.32 823.464 590.096 L 823.464 590.096 L 823.464 590.096 Q 808.872 569.872 808.872 527.248 L 808.872 527.248 L 808.872 527.248 Q 808.872 484.624 823.592 465.424 Z  M 890.28 526.864 L 890.28 526.864 Q 890.28 503.312 886.568 494.992 L 886.568 494.992 L 886.568 494.992 Q 882.856 486.672 871.464 486.672 L 871.464 486.672 L 871.464 486.672 Q 860.072 486.672 856.744 494.992 L 856.744 494.992 L 856.744 494.992 Q 853.416 503.312 853.416 526.608 L 853.416 526.608 L 853.416 532.752 L 853.416 532.752 Q 853.416 557.584 857.128 565.392 L 857.128 565.392 L 857.128 565.392 Q 860.84 573.2 872.232 573.2 L 872.232 573.2 L 872.232 573.2 Q 883.624 573.2 886.952 565.776 L 886.952 565.776 L 886.952 565.776 Q 890.28 558.352 890.28 535.056 L 890.28 535.056 L 890.28 526.864 L 890.28 526.864 Z  M 961.32 465.424 L 961.32 465.424 L 961.32 465.424 Q 976.04 446.224 1009.576 446.224 L 1009.576 446.224 L 1009.576 446.224 Q 1043.112 446.224 1057.576 465.168 L 1057.576 465.168 L 1057.576 465.168 Q 1072.04 484.112 1072.04 526.736 L 1072.04 526.736 L 1072.04 526.736 Q 1072.04 569.36 1057.192 589.84 L 1057.192 589.84 L 1057.192 589.84 Q 1042.344 610.32 1009.064 610.32 L 1009.064 610.32 L 1009.064 610.32 Q 975.784 610.32 961.192 590.096 L 961.192 590.096 L 961.192 590.096 Q 946.6 569.872 946.6 527.248 L 946.6 527.248 L 946.6 527.248 Q 946.6 484.624 961.32 465.424 Z  M 1028.008 526.864 L 1028.008 526.864 Q 1028.008 503.312 1024.296 494.992 L 1024.296 494.992 L 1024.296 494.992 Q 1020.584 486.672 1009.192 486.672 L 1009.192 486.672 L 1009.192 486.672 Q 997.8 486.672 994.472 494.992 L 994.472 494.992 L 994.472 494.992 Q 991.144 503.312 991.144 526.608 L 991.144 526.608 L 991.144 532.752 L 991.144 532.752 Q 991.144 557.584 994.856 565.392 L 994.856 565.392 L 994.856 565.392 Q 998.568 573.2 1009.96 573.2 L 1009.96 573.2 L 1009.96 573.2 Q 1021.352 573.2 1024.68 565.776 L 1024.68 565.776 L 1024.68 565.776 Q 1028.008 558.352 1028.008 535.056 L 1028.008 535.056 L 1028.008 526.864 L 1028.008 526.864 Z  M 1172.904 572.176 L 1170.344 607.76 L 1089.448 607.76 L 1089.448 448.784 L 1133.224 448.784 L 1133.224 572.176 L 1172.904 572.176 L 1172.904 572.176 Z  M 1293.992 561.936 L 1293.992 561.936 L 1293.992 561.936 Q 1293.992 607.76 1244.84 607.76 L 1244.84 607.76 L 1182.12 607.76 L 1182.12 448.784 L 1243.56 448.784 L 1243.56 448.784 Q 1267.88 448.784 1279.656 458.64 L 1279.656 458.64 L 1279.656 458.64 Q 1291.432 468.496 1291.432 490 L 1291.432 490 L 1291.432 490 Q 1291.432 511.504 1273.768 522.768 L 1273.768 522.768 L 1273.768 524.304 L 1273.768 524.304 Q 1293.992 532.24 1293.992 561.936 Z  M 1234.6 579.344 L 1234.6 579.344 Q 1242.28 579.344 1244.968 575.888 L 1244.968 575.888 L 1244.968 575.888 Q 1247.656 572.432 1247.656 561.552 L 1247.656 561.552 L 1247.656 561.552 Q 1247.656 550.672 1244.84 546.192 L 1244.84 546.192 L 1244.84 546.192 Q 1242.024 541.712 1234.6 541.712 L 1234.6 541.712 L 1226.408 541.712 L 1226.408 579.344 L 1234.6 579.344 L 1234.6 579.344 Z  M 1234.856 516.88 L 1234.856 516.88 Q 1240.744 516.88 1243.048 513.296 L 1243.048 513.296 L 1243.048 513.296 Q 1245.352 509.712 1245.352 500.624 L 1245.352 500.624 L 1245.352 500.624 Q 1245.352 491.536 1242.92 487.824 L 1242.92 487.824 L 1242.92 487.824 Q 1240.488 484.112 1234.6 484.112 L 1234.6 484.112 L 1226.408 484.112 L 1226.408 516.88 L 1234.856 516.88 L 1234.856 516.88 Z  M 1318.44 465.424 L 1318.44 465.424 L 1318.44 465.424 Q 1333.16 446.224 1366.696 446.224 L 1366.696 446.224 L 1366.696 446.224 Q 1400.232 446.224 1414.696 465.168 L 1414.696 465.168 L 1414.696 465.168 Q 1429.16 484.112 1429.16 526.736 L 1429.16 526.736 L 1429.16 526.736 Q 1429.16 569.36 1414.312 589.84 L 1414.312 589.84 L 1414.312 589.84 Q 1399.464 610.32 1366.184 610.32 L 1366.184 610.32 L 1366.184 610.32 Q 1332.904 610.32 1318.312 590.096 L 1318.312 590.096 L 1318.312 590.096 Q 1303.72 569.872 1303.72 527.248 L 1303.72 527.248 L 1303.72 527.248 Q 1303.72 484.624 1318.44 465.424 Z  M 1385.128 526.864 L 1385.128 526.864 Q 1385.128 503.312 1381.416 494.992 L 1381.416 494.992 L 1381.416 494.992 Q 1377.704 486.672 1366.312 486.672 L 1366.312 486.672 L 1366.312 486.672 Q 1354.92 486.672 1351.592 494.992 L 1351.592 494.992 L 1351.592 494.992 Q 1348.264 503.312 1348.264 526.608 L 1348.264 526.608 L 1348.264 532.752 L 1348.264 532.752 Q 1348.264 557.584 1351.976 565.392 L 1351.976 565.392 L 1351.976 565.392 Q 1355.688 573.2 1367.08 573.2 L 1367.08 573.2 L 1367.08 573.2 Q 1378.472 573.2 1381.8 565.776 L 1381.8 565.776 L 1381.8 565.776 Q 1385.128 558.352 1385.128 535.056 L 1385.128 535.056 L 1385.128 526.864 L 1385.128 526.864 Z  M 1535.144 525.328 L 1558.696 607.76 L 1508.776 607.76 L 1498.024 557.072 L 1495.976 557.072 L 1483.944 607.76 L 1436.84 607.76 L 1461.672 525.328 L 1438.888 448.784 L 1490.6 448.784 L 1499.304 495.888 L 1501.352 495.888 L 1510.824 448.784 L 1555.88 448.784 L 1535.144 525.328 L 1535.144 525.328 Z " fill="rgb(227,55,55)"/><path d=" M 1576.248 575.12 L 1576.248 575.12 L 1592.888 607.12 L 1559.096 607.12 L 1546.552 578.576 L 1539.896 578.576 L 1539.896 607.12 L 1509.176 607.12 L 1509.176 511.12 L 1557.56 511.12 L 1557.56 511.12 Q 1590.584 511.12 1590.584 544.784 L 1590.584 544.784 L 1590.584 544.784 Q 1590.584 567.824 1576.248 575.12 Z  M 1546.936 535.696 L 1546.936 535.696 L 1539.896 535.696 L 1539.896 554.896 L 1546.936 554.896 L 1546.936 554.896 Q 1552.568 554.896 1555.064 553.744 L 1555.064 553.744 L 1555.064 553.744 Q 1557.56 552.592 1557.56 548.496 L 1557.56 548.496 L 1557.56 542.096 L 1557.56 542.096 Q 1557.56 538 1555.064 536.848 L 1555.064 536.848 L 1555.064 536.848 Q 1552.568 535.696 1546.936 535.696 Z  M 1631.928 607.12 L 1633.72 560.528 L 1634.616 560.528 L 1646.52 607.12 L 1669.944 607.12 L 1681.72 560.528 L 1682.744 560.528 L 1684.536 607.12 L 1716.664 607.12 L 1710.904 511.12 L 1670.712 511.12 L 1658.808 560.016 L 1657.656 560.016 L 1645.752 511.12 L 1605.688 511.12 L 1599.8 607.12 L 1631.928 607.12 L 1631.928 607.12 Z " fill="rgb(0,0,0)"/></g></svg>